<?xml version="1.0" encoding="UTF-8"?>
<svg width="370" height="81.36" viewBox="0 0 370 81.36" xmlns="http://www.w3.org/2000/svg">
<defs>
<linearGradient id="linear">
<stop stop-color="#ef4136" offset="0"/>
<stop stop-color="#fbb040" offset="1"/>
</linearGradient>
</defs>
<g transform="matrix(1.2843 0 0 1.2843 -6.0969 -.41694)" fill="url(#linear)">
<g fill="url(#linear)" xmlns="http://www.w3.org/2000/svg">
<path d="m58.779 20.24c-1.813-8.716-7.061-14.825-15.599-18.157-5.095-1.986-10.738-2.293-16.731-0.904-5.133 1.193-8.806 3.443-11.911 7.295-3.091 3.844-4.618 8.108-4.538 12.689 0.017 0.687 0.071 1.379 0.161 2.058-0.068 0.238-0.182 0.486-0.344 0.754-0.07 0.114-0.139 0.235-0.196 0.347-0.502 0.904-0.996 1.8-1.497 2.709-0.921 1.68-1.874 3.417-2.821 5.117-0.588 1.061-0.712 2.229-0.359 3.511 0.193 0.653 0.506 1.25 0.962 1.814 0.624 0.737 1.459 1.28 2.546 1.654-0.335 0.904-0.281 1.726 0.161 2.45-0.013 0.069-0.024 0.14-0.034 0.214-0.177 1.321 0.254 2.456 1.25 3.296-0.678 2.641 0.306 5.524 2.449 7.081 0.65 0.464 1.354 0.86 2.136 1.197 0.329 0.135 0.701 0.288 1.103 0.415 2.514 0.818 5.071 1.135 7.543 1.441l0.519 0.065c3.333 0.44 4.822 3.375 6.294 6.878 0.386 0.918 1.279 1.512 2.275 1.512 0.388 0 0.777-0.094 1.124-0.271 1.05-0.538 4.739-2.439 7.956-4.098l2.802-1.445c2.372-1.232 4.827-2.505 7.296-3.777l0.261-0.134 0.283-0.263c0.481-0.481 0.988-1.329 0.672-2.639-0.378-1.586-0.638-2.805-0.545-4.042 0.129-1.717 0.632-3.446 1.584-5.442 0.494-1.04 1.02-2.096 1.53-3.12l0.037-0.075c0.63-1.263 1.281-2.568 1.898-3.894 2.15-4.635 2.733-9.424 1.733-14.236zm-10.756 30.636c-1.927 0.995-3.836 1.985-5.695 2.95l-9.252 4.769c-1.421-3.04-3.889-6.972-8.942-7.64l-0.541-0.067c-2.375-0.294-4.617-0.572-6.755-1.269-0.234-0.074-0.489-0.178-0.754-0.288-0.447-0.193-0.872-0.432-1.259-0.709-0.69-0.504-1.014-1.58-0.758-2.493l0.027-0.087c0.048-0.151 0.102-0.321 0.152-0.511 0.36-1.371-0.082-2.66-1.183-3.497 0.234-0.679 0.173-1.352-0.182-2.006 0.241-0.478 0.655-1.443 0.374-2.568-0.3-1.18-1.18-1.941-2.639-2.269l-0.441-0.102c-0.598-0.164-0.836-0.324-0.916-0.412-0.058-0.075-0.096-0.149-0.122-0.233-0.033-0.124-0.028-0.163-0.018-0.179 0.951-1.708 1.907-3.452 2.835-5.144l0.057-0.104c0.478-0.867 0.956-1.734 1.445-2.615l0.082-0.149c0.527-0.864 0.851-1.721 0.993-2.622l0.053-0.335-0.052-0.336c-0.096-0.622-0.152-1.262-0.169-1.897-0.06-3.564 1.109-6.787 3.574-9.853 2.484-3.081 5.325-4.81 9.499-5.781 5.126-1.189 9.878-0.949 14.157 0.718 7.075 2.761 11.419 7.801 12.911 14.98 0.805 3.872 0.328 7.743-1.418 11.507-0.589 1.267-1.228 2.547-1.867 3.828-0.525 1.053-1.067 2.14-1.582 3.225-1.19 2.496-1.824 4.718-1.995 6.993-0.114 1.553 0.131 3.037 0.381 4.196z"/>
<path d="m41.923 17.994-0.016-0.031c-2.386-4.474-6.576-4.822-7.803-4.822-0.108 0-0.188 3e-3 -0.237 5e-3 -0.049-3e-3 -0.13-5e-3 -0.237-5e-3 -1.227 0-5.417 0.348-7.803 4.822l-0.016 0.031c-0.089 0.188-2.147 4.655 0.586 9.096l9e-3 0.015c0.065 0.1 1.602 2.474 1.785 2.748 0.196 0.294 0.304 1.043 0.341 1.583v1.89c0 0.129-2e-3 0.256-3e-3 0.38-4e-3 0.293-7e-3 0.596 0.01 0.9 0.035 0.627 0.47 1.108 1.083 1.196 0.369 0.053 0.762 0.087 1.275 0.11 0.356 0.017 0.417 0.142 0.454 0.217 0.416 0.855 1.413 1.407 2.54 1.408 0.548 0 1.056-0.13 1.48-0.364 0.424-0.235 0.763-0.573 0.971-0.992 0.046-0.091 0.131-0.261 0.541-0.268 0.395-6e-3 0.699-0.024 0.986-0.058 0.891-0.103 1.379-0.676 1.338-1.571-8e-3 -0.176-0.028-0.337-0.047-0.492-0.025-0.201-0.047-0.375-0.037-0.537 0.016-0.267 0.038-1.792 0.068-2.032 0.06-0.486 0.129-1.036 0.352-1.371 0.184-0.275 1.721-2.648 1.786-2.748l9e-3 -0.015c2.732-4.44 0.675-8.907 0.585-9.095zm-1.826 8.323c-0.096 0.148-1.596 2.464-1.771 2.724-0.078 0.117-0.145 0.24-0.202 0.365-0.309 0.675-0.987 1.104-1.729 1.104h-5.225c-0.684 0-1.291-0.421-1.548-1.054-0.064-0.158-0.136-0.297-0.215-0.416-0.173-0.259-1.675-2.575-1.77-2.723-2.239-3.646-0.618-7.445-0.511-7.687 2.856-5.325 10.656-5.27 13.482 0 0.113 0.254 1.725 4.047-0.511 7.687z"/>
<path d="m35.871 26.631c0.077-0.269 0.156-0.537 0.235-0.806l0.013-0.043c0.049-0.164 0.097-0.328 0.145-0.492 0.48-1.647 0.961-3.294 1.44-4.941 0.112-0.384-0.044-0.578-0.195-0.674-0.092-0.058-0.194-0.089-0.295-0.089-0.232 0-0.433 0.162-0.512 0.412-0.07 0.223-0.135 0.45-0.198 0.67l-0.079 0.276-0.137-0.049c-0.589-0.209-1.159-0.336-1.741-0.389l-0.062-6e-3 -0.037-0.051c-6e-3 -9e-3 -0.012-0.018-0.016-0.026l-0.014-0.026-2e-3 -0.029c-8e-3 -0.108-6e-3 -0.218-5e-3 -0.324 1e-3 -0.091 2e-3 -0.184-2e-3 -0.278-0.015-0.322-0.243-0.559-0.543-0.563-0.29 0-0.527 0.252-0.539 0.575-8e-3 0.215-7e-3 0.404 1e-3 0.578 0 9e-3 1e-3 0.016 1e-3 0.022v0.117l-0.116 0.018c-9e-3 1e-3 -0.02 3e-3 -0.034 4e-3 -0.306 0.027-0.554 0.064-0.78 0.115-0.263 0.06-0.518 0.13-0.788 0.205l-0.308 0.085-0.071-0.241c-0.062-0.211-0.124-0.421-0.185-0.631-0.083-0.284-0.286-0.467-0.519-0.467-0.041 0-0.082 6e-3 -0.123 0.016-0.162 0.043-0.283 0.129-0.35 0.248-0.073 0.13-0.083 0.299-0.027 0.49 0.586 2.02 1.186 4.075 1.833 6.283 0.081 0.276 0.278 0.447 0.516 0.447 0.054 0 0.11-9e-3 0.165-0.026 0.128-0.039 0.243-0.135 0.308-0.257 0.051-0.095 0.097-0.254 0.03-0.471-0.208-0.678-0.409-1.369-0.602-2.037l-0.193-0.665c-0.107-0.366-0.213-0.733-0.32-1.105l-0.154-0.535 0.117-0.045c0.462-0.179 0.935-0.292 1.447-0.346l0.151-0.016v0.208c0 0.089 0 0.178-1e-3 0.267v0.025c-1e-3 0.219-2e-3 0.445 2e-3 0.667 7e-3 0.342 0.222 0.573 0.537 0.574 0.31 0 0.524-0.22 0.545-0.56 4e-3 -0.072 4e-3 -0.144 3e-3 -0.214 0-0.029-1e-3 -0.058-1e-3 -0.087v-0.883l0.152 0.017c0.529 0.059 1.001 0.173 1.443 0.347l0.114 0.045-0.032 0.118c-8e-3 0.029-0.016 0.058-0.024 0.086l-0.384 1.323c-0.278 0.956-0.556 1.911-0.831 2.868-0.052 0.179-0.024 0.357 0.075 0.489 0.111 0.147 0.305 0.222 0.51 0.194 0.219-0.026 0.366-0.167 0.437-0.417z"/>
<path d="m24.444 28.468c-0.064 0.089-0.149 0.308-0.308 0.415-0.426 0.286-0.88 0.534-1.333 0.779-0.329 0.178-0.697 0.063-0.872-0.244-0.176-0.309-0.079-0.672 0.251-0.872 0.425-0.257 0.852-0.509 1.289-0.745 0.449-0.241 0.965 0.057 0.973 0.667z"/>
<path d="m23.719 16.683c-0.055-0.021-0.192-0.054-0.31-0.119-0.392-0.217-0.78-0.444-1.166-0.672-0.385-0.228-0.501-0.586-0.304-0.92 0.194-0.329 0.57-0.408 0.952-0.19 0.422 0.241 0.846 0.48 1.257 0.737 0.266 0.166 0.348 0.448 0.254 0.736-0.081 0.249-0.328 0.424-0.683 0.428z"/>
<path d="m22.395 22.81c-0.058 9e-3 -0.194 0.046-0.329 0.046-0.448 0-0.897-0.01-1.345-0.022-0.448-0.013-0.722-0.27-0.712-0.657 0.01-0.382 0.301-0.633 0.741-0.628 0.486 6e-3 0.972 9e-3 1.457 0.035 0.313 0.017 0.521 0.224 0.579 0.521 0.048 0.257-0.082 0.53-0.391 0.705z"/>
<path d="m47.315 22.81c-0.058 9e-3 -0.194 0.046-0.329 0.046-0.448 0-0.897-0.01-1.345-0.022-0.448-0.013-0.722-0.27-0.712-0.657 0.01-0.382 0.301-0.633 0.741-0.628 0.486 6e-3 0.972 9e-3 1.457 0.035 0.313 0.017 0.521 0.224 0.579 0.521 0.048 0.257-0.082 0.53-0.391 0.705z"/>
<path d="m43.279 28.468c0.064 0.089 0.149 0.308 0.308 0.415 0.426 0.286 0.88 0.534 1.333 0.779 0.329 0.178 0.697 0.063 0.872-0.244 0.176-0.309 0.079-0.672-0.251-0.872-0.425-0.257-0.852-0.509-1.289-0.745-0.449-0.241-0.964 0.057-0.973 0.667z"/>
<path d="m44.004 16.683c0.055-0.021 0.192-0.054 0.31-0.119 0.392-0.217 0.78-0.444 1.166-0.672 0.385-0.228 0.501-0.586 0.304-0.92-0.194-0.329-0.57-0.408-0.952-0.19-0.422 0.241-0.846 0.48-1.257 0.737-0.266 0.166-0.348 0.448-0.254 0.736 0.082 0.249 0.328 0.424 0.683 0.428z"/>
</g>
</g>
<g transform="matrix(3.0879 0 0 3.0879 86.287 -5.508)" fill="#393e46">
<path d="m5.18 20.12c-0.42 0-1.66-0.16-1.8-0.48-0.52-0.28-1-0.68-1.28-1.22-0.1-0.1-0.16-0.22-0.18-0.34-0.32-0.38-0.52-1-0.64-1.48-0.1-0.5-0.1-1.04-0.02-1.6l0.04-0.22c0.04-0.76 0.4-1.42 0.88-1.98 0.78-1.02 2.14-1.56 3.4-1.56 0.38 0 0.6 0 0.94 0.16 0.2 0 0.32 0 0.42 0.18 0.22 0.02 0.4 0.1 0.54 0.24 0.06 0.06 0.14 0.14 0.22 0.2l0.2 0.2c0.1 0.06 0.1 0.14 0 0.24-0.06 0.06-0.12 0.08-0.22 0.08-0.02 0-0.04 0-0.06-0.02h-0.06c-0.1-0.02-0.22-0.08-0.34-0.2-0.1-0.1-0.22-0.16-0.34-0.18-0.34-0.14-0.72-0.22-1.14-0.22-0.3 0-0.68 0.06-1.14 0.16-1.02 0.52-1.84 1.22-2.16 2.36-0.02 0.14-0.08 0.26-0.18 0.34l-0.06 1.78c0 0.14 0.02 0.3 0.08 0.44 0.04 0.16 0.1 0.32 0.16 0.46 0.44 1.26 1.28 1.8 2.56 2 0.06 0.02 0.14 0.02 0.2 0.02 1.12 0 1.72-0.26 2.5-1.04 0.06-0.04 0.12-0.1 0.18-0.16 0.04-0.04 0.2-0.2 0.28-0.2 0.04 0 0.08 0.02 0.12 0.06 0.14 0.14 0.12 0.28-0.02 0.46-0.06 0.08-0.14 0.16-0.22 0.24s-0.16 0.16-0.22 0.24c-0.16 0.18-0.34 0.32-0.54 0.42-0.66 0.42-1.36 0.62-2.1 0.62zm-2.24-7.3c0-0.02 0-0.02 0.02-0.02h-0.02v0.02zm11.82 7.24c-1.34 0-2.72-0.76-3.24-2.02-0.06-0.14-0.12-0.3-0.22-0.46-0.1-0.14-0.16-0.3-0.18-0.5-0.02-0.02-0.04-0.04-0.04-0.06-0.2-0.42-0.28-0.84-0.22-1.24 0.04-0.42 0.1-0.84 0.2-1.24l0.08-0.32 0.06-0.32c0.02-0.2 0.12-0.38 0.32-0.56 0.1-0.3 0.32-0.56 0.62-0.78 0.02-0.04 0.06-0.08 0.1-0.12l0.12-0.12c0.08-0.06 0.16-0.14 0.22-0.22 0.06-0.1 0.14-0.18 0.22-0.24 0.06-0.06 0.16-0.08 0.28-0.08h0.04c0.34-0.22 0.68-0.38 1-0.46 0.32-0.06 0.68-0.1 1.08-0.1 0.1 0 0.16 0 0.2 0.02h0.14c1.2 0.12 2.04 0.6 2.64 1.66 0.3 0.46 0.5 0.96 0.56 1.5s0.06 1.08 0 1.64v0.16c0 0.06 0 0.1 0.02 0.16 0 0.12-0.06 0.22-0.16 0.3v0.08c0 0.1 0 0.18 0.02 0.22 0 0.08-0.04 0.16-0.1 0.22-0.02 0.02-0.02 0.06-0.04 0.1s-0.02 0.08-0.04 0.1c-0.06 0.1-0.08 0.18-0.1 0.24-0.06 0.12-0.12 0.24-0.16 0.36-0.06 0.14-0.14 0.24-0.26 0.34l-0.1 0.16c0 0.1-0.02 0.16-0.06 0.18-0.08 0.06-0.14 0.08-0.18 0.1s-0.08 0.06-0.14 0.12c-0.02 0.04-0.08 0.1-0.14 0.16-0.74 0.6-1.38 1-2.36 1-0.04 0.02-0.1 0.02-0.18 0.02zm-0.08-0.88h0.16c0.08 0 0.16 0 0.24-0.02 0.16 0 0.32-0.02 0.48-0.06h0.24l0.66-0.36c0.22-0.14 0.42-0.28 0.58-0.42h0.02l-0.04-0.04c0.02-0.14 0.08-0.26 0.2-0.4 0.1-0.1 0.18-0.22 0.24-0.36 0.34-0.62 0.58-1.4 0.62-2.1 0.02-0.38 0-0.72-0.08-1.04-0.1-0.38-0.36-1.06-0.66-1.36-0.06-0.04-0.1-0.08-0.14-0.12l-0.14-0.14c-0.08-0.06-0.14-0.1-0.18-0.14-0.06-0.04-0.1-0.12-0.1-0.22 0-0.02 0-0.02 0.02-0.02h-0.02c-0.52-0.28-1.04-0.42-1.54-0.42-0.28 0-0.58 0.04-0.88 0.1-0.3 0.08-0.58 0.18-0.84 0.32-0.02 0.02-0.04 0.02-0.06 0.02-0.04 0-0.1 0.04-0.1 0.08 0 0.02 0 0.02-0.02 0.04-0.06 0.04-0.1 0.08-0.14 0.12l-0.16 0.16c-0.12 0.12-0.24 0.18-0.36 0.2-0.44 0.52-0.56 1.18-0.68 1.84v0.18c-0.02 0.06-0.04 0.1-0.1 0.16-0.02 0.06 0 0.12 0.04 0.18 0.02 0.06 0.02 0.1-0.04 0.16v0.08c0.04 0.04 0.08 0.12 0.1 0.22 0 0.1 0 0.18-0.02 0.22 0.02 0.06 0.02 0.1 0.02 0.14 0 0.06 0 0.1 0.02 0.16s0.02 0.1 0.02 0.16 0 0.1 0.02 0.16c0.06 0.1 0.08 0.18 0.1 0.24l0.12 0.16c0.02 0.08 0.04 0.16 0.04 0.22h0.02c0.1 0.18 0.2 0.32 0.34 0.5l0.36 0.54c0.22 0.22 0.48 0.4 0.76 0.54 0.24 0.14 0.54 0.26 0.88 0.32zm7.66 1.04c-0.26 0-0.34-0.12-0.34-0.38 0.02-0.1 0.02-0.18 0.02-0.28l-0.06-0.28c-0.06-0.18-0.08-0.38-0.06-0.56-0.06-0.3-0.08-0.62-0.06-0.94 0.02-0.16 0.02-0.32 0.04-0.48 0-0.16 0-0.32-0.02-0.48 0.02-0.1 0.02-0.2-0.02-0.28-0.04-0.1-0.02-0.2 0.04-0.3v-0.08c-0.08-0.26-0.12-0.5-0.1-0.74l0.06-0.96c0.02-0.32 0.02-0.64 0.02-0.96-0.02-0.38-0.02-0.78 0-1.16-0.02-0.06 0-0.16 0.02-0.3 0.02-0.06 0.04-0.16 0.1-0.3 0.04-0.2 0.16-0.3 0.34-0.3 0.06 0 0.16 0.02 0.26 0.04 0.06 0.04 0.1 0.12 0.12 0.24 0 0.1 0 0.16-0.02 0.18 0.06 0.12 0.1 0.22 0.08 0.32-0.02 0.12-0.02 0.24 0 0.34-0.02 0.48-0.02 0.96 0 1.44v0.74c-0.04 0.54-0.06 1.1-0.06 1.64-0.02 0.3-0.02 0.62 0 0.92s0.02 0.62 0.02 0.92 0 0.62 0.02 0.92h0.6c0.06 0 0.08 0 0.1-0.02 0.06-0.02 0.1-0.04 0.14-0.04 0.06 0 0.1 0.02 0.14 0.08 0.38-0.08 0.78-0.1 1.16-0.1 0.46 0 0.94 0.04 1.42 0.12h0.12c0.08 0 0.14 0 0.18 0.02 0.06 0.02 0.08 0.1 0.06 0.2-0.04 0.24-0.12 0.44-0.4 0.44-0.38 0.04-0.72 0.08-1.1 0.08-0.12 0-0.2 0-0.26-0.02h-1.7c0.02 0-0.04 0.02-0.14 0.04l-0.3 0.12c-0.06 0.02-0.4 0.14-0.42 0.16zm7.88 0c-0.26 0-0.34-0.12-0.34-0.38 0.02-0.1 0.02-0.18 0.02-0.28l-0.06-0.28c-0.06-0.18-0.08-0.38-0.06-0.56-0.06-0.3-0.08-0.62-0.06-0.94 0.02-0.16 0.02-0.32 0.04-0.48 0-0.16 0-0.32-0.02-0.48 0.02-0.1 0.02-0.2-0.02-0.28-0.04-0.1-0.02-0.2 0.04-0.3v-0.08c-0.08-0.26-0.12-0.5-0.1-0.74l0.06-0.96c0.02-0.32 0.02-0.64 0.02-0.96-0.02-0.38-0.02-0.78 0-1.16-0.02-0.06 0-0.16 0.02-0.3 0.02-0.06 0.04-0.16 0.1-0.3 0.04-0.2 0.16-0.3 0.34-0.3 0.06 0 0.16 0.02 0.26 0.04 0.06 0.04 0.1 0.12 0.12 0.24 0 0.1 0 0.16-0.02 0.18 0.06 0.12 0.1 0.22 0.08 0.32-0.02 0.12-0.02 0.24 0 0.34-0.02 0.48-0.02 0.96 0 1.44v0.74c-0.04 0.54-0.06 1.1-0.06 1.64-0.02 0.3-0.02 0.62 0 0.92s0.02 0.62 0.02 0.92 0 0.62 0.02 0.92h0.6c0.06 0 0.08 0 0.1-0.02 0.06-0.02 0.1-0.04 0.14-0.04 0.06 0 0.1 0.02 0.14 0.08 0.38-0.08 0.78-0.1 1.16-0.1 0.46 0 0.94 0.04 1.42 0.12h0.12c0.08 0 0.14 0 0.18 0.02 0.06 0.02 0.08 0.1 0.06 0.2-0.04 0.24-0.12 0.44-0.4 0.44-0.38 0.04-0.72 0.08-1.1 0.08-0.12 0-0.2 0-0.26-0.02h-1.7c0.02 0-0.04 0.02-0.14 0.04l-0.3 0.12c-0.06 0.02-0.4 0.14-0.42 0.16zm6.98 0.18c-0.06-0.02-0.12-0.06-0.14-0.14-0.02-0.06-0.02-0.14 0-0.2 0.14-0.62 0.48-1.48 1.02-2.58 0.64-1.38 1.32-2.74 2.02-4.08l0.16-0.4c0.12-0.4 0.32-0.82 0.52-1.18 0.06-0.16 0.14-0.3 0.28-0.4 0.14-0.14 0.26-0.2 0.38-0.2 0.2 0 0.32 0.14 0.36 0.4 0.02 0.1 0.06 0.22 0.1 0.32 0.02 0.12 0.06 0.24 0.1 0.34 0.02 0.1 0.06 0.22 0.08 0.34l0.06 0.34c0.06 0.02 0.06 0.06 0.04 0.08 0.08 0.24 0.16 0.48 0.26 0.72 0.08 0.24 0.16 0.48 0.26 0.72 0.06 0.24 0.14 0.48 0.2 0.72l0.18 0.76c0.02 0.02 0.02 0.06 0.02 0.1s0 0.08 0.02 0.1c0.02 0.1 0.04 0.18 0.06 0.22 0.1 0.18 0.18 0.34 0.24 0.52s0.1 0.36 0.16 0.54c0.1 0.38 0.22 0.76 0.36 1.14 0.02 0.1 0.06 0.2 0.1 0.3l0.12 0.3c0.02 0.1 0.06 0.2 0.08 0.3l0.08 0.32c0.02 0.06 0.02 0.14 0.02 0.28 0 0.1-0.06 0.16-0.2 0.22-0.02 0.02-0.04 0.02-0.1 0.02-0.1 0-0.16-0.04-0.18-0.12-0.02-0.04-0.02-0.08-0.04-0.12s-0.02-0.08-0.04-0.14c-0.18-0.28-0.3-0.6-0.38-0.96-0.06-0.18-0.1-0.34-0.16-0.5l-0.18-0.5c-0.1-0.06-0.16-0.14-0.16-0.24s-0.04-0.2-0.14-0.28l-2.98 0.18c-0.34 0.02-0.68 0.02-1.02 0.02-0.04 0.02-0.06 0.04-0.06 0.06-0.02 0.14-0.08 0.3-0.18 0.52-0.06 0.12-0.1 0.24-0.14 0.36-0.06 0.12-0.1 0.24-0.16 0.38-0.12 0.26-0.24 0.5-0.36 0.72-0.06 0.1-0.12 0.2-0.18 0.28l-0.14 0.2c-0.06 0.14-0.18 0.22-0.34 0.22zm2.54-3.54h0.2c0.34 0 0.68-0.02 1.02-0.06l0.28-0.04c0.1 0 0.18 0 0.28-0.02s0.18-0.02 0.28-0.02h0.22c0.16 0 0.28 0.02 0.38 0.06-0.46-1.22-0.92-2.46-1.12-3.76 0-0.06-0.02-0.1-0.06-0.1-0.02 0-0.02 0-0.04 0.02s-0.04 0-0.06-0.02l-0.18 0.4c-0.06 0.16-0.14 0.34-0.22 0.52l-0.24 0.54-0.24 0.56c-0.08 0.18-0.16 0.36-0.22 0.52-0.14 0.26-0.26 0.54-0.38 0.82l-0.12 0.2c-0.06 0.14-0.08 0.22-0.06 0.28 0.02 0.04 0.1 0.08 0.28 0.1zm9.18 3.18c-0.12-0.02-0.24-0.02-0.38-0.04-0.26-0.04-0.5-0.04-0.76-0.08-0.1-0.02-0.16-0.04-0.22-0.06s-0.12-0.02-0.16-0.04c-0.1-0.02-0.16-0.06-0.2-0.12-0.06-0.06-0.08-0.14-0.08-0.24-0.02-0.06-0.02-0.12-0.02-0.2 0-0.06 0-0.16-0.02-0.26l-0.06-1.16c-0.02-0.38-0.02-0.78-0.04-1.16s-0.02-0.78-0.04-1.16l-0.06-1.14c-0.02-0.2-0.02-0.4-0.02-0.6-0.02-0.2-0.02-0.4-0.02-0.6s0-0.4 0.02-0.6l0.06-0.62c0.02-0.12 0.06-0.24 0.12-0.34 0.06-0.08 0.16-0.12 0.28-0.12 0.06 0 0.12 0 0.14 0.02h0.4c0.22-0.06 0.5-0.08 0.84-0.08 0.9 0 2.46 0.44 2.86 1.28 0.24 0.26 0.38 0.56 0.44 0.94s0 0.72-0.22 0.98c-0.1 0.28-0.26 0.48-0.46 0.58l-0.32 0.2-0.36 0.2c0.06 0.02 0.1 0.02 0.14 0.04s0.08 0.02 0.1 0.04 0.06 0.02 0.1 0.04 0.08 0.02 0.1 0.04c0.22 0.06 0.4 0.16 0.54 0.28 0.14 0.14 0.28 0.3 0.42 0.48 0.1 0.06 0.16 0.12 0.2 0.18l0.14 0.24c0.16 0.42 0.2 0.82 0.14 1.2-0.06 0.4-0.26 0.76-0.6 1.1-0.06 0.1-0.12 0.16-0.2 0.2l-0.28 0.12c-0.18 0.18-1.02 0.38-1.34 0.38l-0.32 0.06c-0.1 0.02-0.2 0.02-0.28 0.02h-0.2-0.38zm0.04-4.8c0.54 0 1-0.06 1.42-0.2 0.44-0.12 0.88-0.4 1-0.86 0.06-0.2 0.06-0.42 0-0.64s-0.18-0.44-0.34-0.62l-0.08-0.12c-0.04-0.04-0.08-0.06-0.1-0.06v-0.02c-0.1-0.04-0.24-0.16-0.3-0.24v-0.02c-0.06 0-0.12-0.02-0.18-0.08-0.06 0-0.08 0-0.1-0.02 0.02 0-0.02-0.02-0.1-0.04l-0.12-0.08c-0.02-0.02-0.06-0.02-0.08-0.04-0.02 0-0.06 0-0.08-0.02l-0.34-0.1c-0.12-0.06-0.24-0.08-0.38-0.08h-0.02l-0.18 0.06c-0.04 0.02-0.1 0.02-0.18 0.02-0.14 0-0.28-0.04-0.44-0.12-0.1 0.12-0.22 0.18-0.4 0.18l-0.24-0.04c0.06 0.1 0.1 0.2 0.1 0.3-0.02 0.06-0.02 0.16-0.02 0.3v0.94c-0.02 0.16-0.02 0.32-0.02 0.48v0.46c0 0.42 0.1 0.48 0.5 0.52h0.32c0.1 0 0.2 0.04 0.3 0.1zm1.04 0.04h0.02v-0.02zm-1.44 4.16c0.14-0.08 0.28-0.12 0.4-0.12s0.22 0.04 0.32 0.1h0.02c0.06-0.1 0.14-0.14 0.26-0.14 0.24-0.02 0.48-0.06 0.74-0.12 0.24-0.04 0.48-0.1 0.7-0.16 0.02 0 0.06 0.02 0.08 0.04 0-0.06 0.02-0.12 0.06-0.18l0.12-0.12c0.18-0.22 0.32-0.42 0.42-0.62 0.08-0.22 0.08-0.46 0-0.74-0.04-0.1-0.04-0.2 0.02-0.28v-0.02c-0.02-0.06-0.06-0.12-0.1-0.18-0.04-0.04-0.08-0.08-0.12-0.14-0.06-0.04-0.1-0.08-0.14-0.12-0.06-0.04-0.1-0.08-0.14-0.14-0.06-0.04-0.1-0.08-0.14-0.12l-0.12-0.12c-0.1-0.06-0.18-0.08-0.24-0.08-0.12-0.08-0.48-0.22-0.62-0.24-0.02-0.02-0.06-0.02-0.08-0.02s-0.06 0-0.08-0.02c-0.06-0.02-0.08-0.06-0.06-0.14-0.02 0-0.02 0-0.04 0.02h-0.16c-0.02 0-0.02 0-0.04-0.02h-1.24c-0.02 0.02-0.06 0.02-0.1 0.02-0.1 0-0.22-0.02-0.32-0.06h-0.18c0.02 0.02 0.02 0.06 0.02 0.08 0.02 0.26 0.02 0.5 0.04 0.76 0 0.26 0 0.5 0.02 0.76s0.02 0.5 0.02 0.76l-0.06 0.76c0 0.18 0.02 0.3 0.08 0.36 0.04 0.08 0.16 0.12 0.34 0.12 0.04 0.02 0.1 0.02 0.18 0.02 0.06 0.02 0.12 0.06 0.14 0.1zm10.9 0.62c-1.34 0-2.72-0.76-3.24-2.02-0.06-0.14-0.12-0.3-0.22-0.46-0.1-0.14-0.16-0.3-0.18-0.5-0.02-0.02-0.04-0.04-0.04-0.06-0.2-0.42-0.28-0.84-0.22-1.24 0.04-0.42 0.1-0.84 0.2-1.24l0.08-0.32 0.06-0.32c0.02-0.2 0.12-0.38 0.32-0.56 0.1-0.3 0.32-0.56 0.62-0.78 0.02-0.04 0.06-0.08 0.1-0.12l0.12-0.12c0.08-0.06 0.16-0.14 0.22-0.22 0.06-0.1 0.14-0.18 0.22-0.24 0.06-0.06 0.16-0.08 0.28-0.08h0.04c0.34-0.22 0.68-0.38 1-0.46 0.32-0.06 0.68-0.1 1.08-0.1 0.1 0 0.16 0 0.2 0.02h0.14c1.2 0.12 2.04 0.6 2.64 1.66 0.3 0.46 0.5 0.96 0.56 1.5s0.06 1.08 0 1.64v0.16c0 0.06 0 0.1 0.02 0.16 0 0.12-0.06 0.22-0.16 0.3v0.08c0 0.1 0 0.18 0.02 0.22 0 0.08-0.04 0.16-0.1 0.22-0.02 0.02-0.02 0.06-0.04 0.1s-0.02 0.08-0.04 0.1c-0.06 0.1-0.08 0.18-0.1 0.24-0.06 0.12-0.12 0.24-0.16 0.36-0.06 0.14-0.14 0.24-0.26 0.34l-0.1 0.16c0 0.1-0.02 0.16-0.06 0.18-0.08 0.06-0.14 0.08-0.18 0.1s-0.08 0.06-0.14 0.12c-0.02 0.04-0.08 0.1-0.14 0.16-0.74 0.6-1.38 1-2.36 1-0.04 0.02-0.1 0.02-0.18 0.02zm-0.08-0.88h0.16c0.08 0 0.16 0 0.24-0.02 0.16 0 0.32-0.02 0.48-0.06h0.24l0.66-0.36c0.22-0.14 0.42-0.28 0.58-0.42h0.02l-0.04-0.04c0.02-0.14 0.08-0.26 0.2-0.4 0.1-0.1 0.18-0.22 0.24-0.36 0.34-0.62 0.58-1.4 0.62-2.1 0.02-0.38 0-0.72-0.08-1.04-0.1-0.38-0.36-1.06-0.66-1.36-0.06-0.04-0.1-0.08-0.14-0.12l-0.14-0.14c-0.08-0.06-0.14-0.1-0.18-0.14-0.06-0.04-0.1-0.12-0.1-0.22 0-0.02 0-0.02 0.02-0.02h-0.02c-0.52-0.28-1.04-0.42-1.54-0.42-0.28 0-0.58 0.04-0.88 0.1-0.3 0.08-0.58 0.18-0.84 0.32-0.02 0.02-0.04 0.02-0.06 0.02-0.04 0-0.1 0.04-0.1 0.08 0 0.02 0 0.02-0.02 0.04-0.06 0.04-0.1 0.08-0.14 0.12l-0.16 0.16c-0.12 0.12-0.24 0.18-0.36 0.2-0.44 0.52-0.56 1.18-0.68 1.84v0.18c-0.02 0.06-0.04 0.1-0.1 0.16-0.02 0.06 0 0.12 0.04 0.18 0.02 0.06 0.02 0.1-0.04 0.16v0.08c0.04 0.04 0.08 0.12 0.1 0.22 0 0.1 0 0.18-0.02 0.22 0.02 0.06 0.02 0.1 0.02 0.14 0 0.06 0 0.1 0.02 0.16s0.02 0.1 0.02 0.16 0 0.1 0.02 0.16c0.06 0.1 0.08 0.18 0.1 0.24l0.12 0.16c0.02 0.08 0.04 0.16 0.04 0.22h0.02c0.1 0.18 0.2 0.32 0.34 0.5l0.36 0.54c0.22 0.22 0.48 0.4 0.76 0.54 0.24 0.14 0.54 0.26 0.88 0.32zm7.6 1.16c-0.12 0-0.2-0.04-0.24-0.12-0.06-0.06-0.06-0.16-0.04-0.28-0.02-0.06-0.02-0.16-0.02-0.3v-0.26c-0.02-0.04-0.02-0.08-0.04-0.14-0.02-0.04-0.02-0.08-0.02-0.14-0.06-1.6-0.06-3.2-0.06-4.8 0-0.52 0-1.06-0.02-1.6v-0.28c-0.02-0.08 0.02-0.16 0.08-0.26v-0.02c0.06-0.14 0.14-0.24 0.24-0.28 0.08-0.04 0.18-0.06 0.28-0.06h0.26c0.06-0.06 0.14-0.08 0.24-0.08h0.08c0.06 0 0.12 0 0.16-0.02 0.06-0.02 0.14-0.02 0.2-0.04 0.06 0 0.14 0 0.2-0.02s0.14-0.02 0.2-0.02c1.18 0 3.06 0.48 3.5 1.74 0.18 0.18 0.28 0.44 0.3 0.74 0.02 0.32-0.04 0.58-0.18 0.78-0.32 0.48-0.8 0.84-1.32 1.04-0.1 0.1-0.22 0.14-0.34 0.14-0.26 0.06-0.54 0.12-0.86 0.14l-0.9 0.06 0.24 0.16 0.24 0.18c0.06 0.06 0.14 0.12 0.22 0.18s0.16 0.12 0.22 0.18c0.1 0.06 0.18 0.1 0.28 0.14 0.08 0.06 0.16 0.12 0.26 0.18l0.24 0.2 0.22 0.22c0.18 0.12 0.34 0.24 0.5 0.36s0.32 0.24 0.5 0.36c0.32 0.24 0.64 0.5 0.94 0.8 0.26 0.24 0.2 0.4-0.16 0.48-0.62-0.26-1.2-0.64-1.72-1.16-0.1-0.06-0.18-0.14-0.28-0.2s-0.18-0.14-0.28-0.2-0.18-0.14-0.26-0.2c-0.1-0.06-0.18-0.14-0.24-0.24-0.18-0.1-0.34-0.22-0.52-0.34-0.52-0.34-1.04-0.66-1.58-0.94l-0.06 1.62c-0.02 0.26-0.02 0.54-0.02 0.8 0 0.28 0 0.56-0.02 0.82 0 0.08 0 0.14-0.02 0.18l-0.06 0.18c-0.02 0.22-0.12 0.32-0.34 0.32zm0.84-4.72h0.66c0.36-0.02 0.7-0.06 1.04-0.12 0.38-0.04 0.72-0.1 1.04-0.18 0.06-0.06 0.14-0.12 0.22-0.16 0.04-0.02 0.08-0.02 0.12-0.04s0.08-0.02 0.14-0.04l0.16-0.12 0.12-0.12c0.22-0.18 0.32-0.36 0.34-0.54s-0.04-0.38-0.2-0.6l-0.24-0.36-0.32-0.32c-0.3-0.22-0.66-0.4-1.04-0.5-0.18-0.04-0.38-0.08-0.58-0.14-0.2-0.04-0.4-0.08-0.58-0.14h-0.4c-0.12 0-0.2 0-0.22 0.02h-0.28c-0.1 0.02-0.14 0.04-0.16 0.06-0.02 0.06-0.04 0.1-0.04 0.14-0.02 0.04-0.02 0.14-0.02 0.28v0.2c0 0.1 0 0.18-0.02 0.22 0.02 0.38 0.02 0.78 0 1.16-0.04 0.38-0.02 0.76 0.04 1.18v0.1c0.06 0.02 0.14 0.02 0.22 0.02zm3.56-2.4v-0.02h-0.02c0 0.02 0 0.02 0.02 0.02zm-3.98 3.12 0.02-0.02h-0.02v0.02zm11.28 3.7c-1.32 0-2.44-1-2.84-2.22-0.14-0.38-0.16-0.82-0.1-1.28 0.12-1.02 0.86-1.86 1.7-2.38-0.54-0.62-0.82-1.24-0.8-1.9 0.08-1.18 1.06-2.38 2.3-2.38 1.1 0 2.08 1.24 2.18 2.26 0.02 0.32-0.04 0.64-0.18 0.98-0.16 0.34-0.44 0.68-0.86 1.04 0.98 0.52 1.78 1.1 1.78 2.34 0 1.78-1.28 3.54-3.18 3.54zm0.14-6.22c0.44 0 0.84-0.16 1.18-0.46 0.3-0.3 0.5-0.64 0.5-1.06 0-0.18-0.04-0.38-0.1-0.58-0.1-0.2-0.2-0.38-0.3-0.52-0.28-0.28-0.6-0.5-1-0.5-0.88 0-1.56 0.96-1.56 1.78-0.02 0.38 0.1 0.68 0.36 0.94 0.22 0.24 0.54 0.38 0.92 0.4zm-0.12 5.48c1.18-0.04 2.18-0.94 2.46-2.08 0.1-0.34 0.08-0.72-0.02-1.12-0.06-0.18-0.16-0.36-0.26-0.54-0.12-0.16-0.26-0.32-0.4-0.46-0.14-0.12-0.3-0.24-0.48-0.38-0.18-0.12-0.36-0.18-0.56-0.18-0.14 0-0.26 0.02-0.36 0.08-0.3 0-0.6 0.06-0.88 0.16-0.86 0.36-1.48 1.04-1.6 2-0.04 0.3 0 0.62 0.1 0.92 0.28 0.86 1.06 1.6 2 1.6zm6.8 0.92c-0.2 0-0.26-0.04-0.34-0.22-0.12-0.52-0.14-1.12-0.14-1.64-0.02-0.26-0.02-0.5-0.02-0.74s0-0.48-0.02-0.74l-0.06-1.52-0.06-1.5c-0.02-0.52-0.02-1.04 0-1.54 0-0.14 0.02-0.3 0.06-0.5 0.02-0.18 0.14-0.3 0.32-0.32 0.18 0.14 0.36 0.32 0.5 0.54s0.28 0.38 0.42 0.52 0.26 0.3 0.36 0.52c0.12 0.16 0.26 0.32 0.4 0.46l0.4 0.48 0.12 0.12c0.04 0.04 0.08 0.08 0.14 0.12 0.1 0.1 0.14 0.2 0.16 0.32 0.1 0.06 0.18 0.14 0.24 0.2l0.18 0.22 0.18 0.16c0.04 0.06 0.08 0.12 0.14 0.18l0.24 0.4c0.02 0.02 0.02 0.04 0.02 0.08l0.08 0.06c0.22 0.18 0.44 0.38 0.62 0.6 0.28 0.4 0.62 0.8 0.98 1.16 0.14 0.18 0.32 0.4 0.48 0.56 0-0.38-0.04-0.72-0.08-1.1-0.02-0.26-0.02-0.54 0-0.8 0.02-0.14 0.02-0.26 0.02-0.4l-0.04-0.4c0-0.06 0.02-0.12 0.08-0.18 0.02-0.14 0.02-0.3 0-0.46s0-0.3 0.08-0.44v-1.22c0-0.18 0-0.36 0.02-0.56 0-0.2 0.02-0.38 0.04-0.56l0.06-0.48c0-0.22 0.12-0.32 0.36-0.32 0.22 0 0.36 0.12 0.38 0.34l0.06 0.6c0 0.22 0 0.46-0.02 0.72-0.06 0.7-0.1 1.42-0.1 2.12-0.04 0.52-0.06 1.06-0.06 1.6v0.82c0 0.06 0 0.14 0.02 0.22 0 0.1 0 0.2 0.02 0.3s0.02 0.22 0.02 0.34v0.34 0.34c-0.02 0.1-0.02 0.2-0.04 0.3-0.04 0.18-0.12 0.32-0.22 0.4-0.06 0.04-0.1 0.06-0.16 0.06-0.22 0-1.2-1.06-1.34-1.24-0.18-0.18-0.26-0.28-0.28-0.32-0.4-0.32-0.74-0.7-1-1.16-0.08-0.02-0.12-0.06-0.14-0.1-0.06-0.06-0.08-0.1-0.1-0.14-0.14-0.1-0.26-0.22-0.36-0.36-0.06-0.06-0.1-0.14-0.14-0.2-0.06-0.06-0.1-0.14-0.16-0.2-0.14-0.22-0.3-0.44-0.48-0.62-0.18-0.16-0.36-0.36-0.5-0.6-0.02-0.04-0.06-0.08-0.1-0.12s-0.08-0.08-0.1-0.12c-0.06-0.08-0.12-0.16-0.14-0.26l-0.12-0.12c-0.06-0.06-0.1-0.1-0.12-0.14-0.02-0.02-0.04-0.06-0.06-0.1s-0.04-0.08-0.06-0.1c-0.04-0.06-0.08-0.1-0.1-0.14-0.04-0.1-0.12-0.16-0.22-0.16-0.04 0-0.06 0.06-0.06 0.2 0.02 0.06 0.02 0.14 0.02 0.22v0.22c-0.02 0.06-0.02 0.14-0.02 0.22v0.22 0.72c0 0.24 0 0.48 0.02 0.72v1.46c0.02 0.22 0.06 0.42 0.08 0.6 0.02 0.2 0.02 0.4 0.02 0.58-0.02 0.38-0.06 0.78-0.12 1.22-0.02 0.14-0.12 0.24-0.26 0.26z"/>
</g>
</svg>
