<?xml version="1.0" encoding="UTF-8"?>
<svg class="css-1j8o68f" width="380.4" height="114.2" viewBox="0 0 369.55 110.95" xmlns="http://www.w3.org/2000/svg">
<defs>
<linearGradient id="a">
<stop stop-color="#ef4136" offset="0"/>
<stop stop-color="#fbb040" offset="1"/>
</linearGradient>
</defs>
<g transform="matrix(1.7513 0 0 1.7513 -8.314 -.56855)" fill="url(#a)" featurekey="symbolFeature-0">
<g fill="url(#a)" xmlns="http://www.w3.org/2000/svg">
<path d="m58.779 20.24c-1.813-8.716-7.061-14.825-15.599-18.157-5.095-1.986-10.738-2.293-16.731-0.904-5.133 1.193-8.806 3.443-11.911 7.295-3.091 3.844-4.618 8.108-4.538 12.689 0.017 0.687 0.071 1.379 0.161 2.058-0.068 0.238-0.182 0.486-0.344 0.754-0.07 0.114-0.139 0.235-0.196 0.347-0.502 0.904-0.996 1.8-1.497 2.709-0.921 1.68-1.874 3.417-2.821 5.117-0.588 1.061-0.712 2.229-0.359 3.511 0.193 0.653 0.506 1.25 0.962 1.814 0.624 0.737 1.459 1.28 2.546 1.654-0.335 0.904-0.281 1.726 0.161 2.45-0.013 0.069-0.024 0.14-0.034 0.214-0.177 1.321 0.254 2.456 1.25 3.296-0.678 2.641 0.306 5.524 2.449 7.081 0.65 0.464 1.354 0.86 2.136 1.197 0.329 0.135 0.701 0.288 1.103 0.415 2.514 0.818 5.071 1.135 7.543 1.441l0.519 0.065c3.333 0.44 4.822 3.375 6.294 6.878 0.386 0.918 1.279 1.512 2.275 1.512 0.388 0 0.777-0.094 1.124-0.271 1.05-0.538 4.739-2.439 7.956-4.098l2.802-1.445c2.372-1.232 4.827-2.505 7.296-3.777l0.261-0.134 0.283-0.263c0.481-0.481 0.988-1.329 0.672-2.639-0.378-1.586-0.638-2.805-0.545-4.042 0.129-1.717 0.632-3.446 1.584-5.442 0.494-1.04 1.02-2.096 1.53-3.12l0.037-0.075c0.63-1.263 1.281-2.568 1.898-3.894 2.15-4.635 2.733-9.424 1.733-14.236zm-10.756 30.636c-1.927 0.995-3.836 1.985-5.695 2.95l-9.252 4.769c-1.421-3.04-3.889-6.972-8.942-7.64l-0.541-0.067c-2.375-0.294-4.617-0.572-6.755-1.269-0.234-0.074-0.489-0.178-0.754-0.288-0.447-0.193-0.872-0.432-1.259-0.709-0.69-0.504-1.014-1.58-0.758-2.493l0.027-0.087c0.048-0.151 0.102-0.321 0.152-0.511 0.36-1.371-0.082-2.66-1.183-3.497 0.234-0.679 0.173-1.352-0.182-2.006 0.241-0.478 0.655-1.443 0.374-2.568-0.3-1.18-1.18-1.941-2.639-2.269l-0.441-0.102c-0.598-0.164-0.836-0.324-0.916-0.412-0.058-0.075-0.096-0.149-0.122-0.233-0.033-0.124-0.028-0.163-0.018-0.179 0.951-1.708 1.907-3.452 2.835-5.144l0.057-0.104c0.478-0.867 0.956-1.734 1.445-2.615l0.082-0.149c0.527-0.864 0.851-1.721 0.993-2.622l0.053-0.335-0.052-0.336c-0.096-0.622-0.152-1.262-0.169-1.897-0.06-3.564 1.109-6.787 3.574-9.853 2.484-3.081 5.325-4.81 9.499-5.781 5.126-1.189 9.878-0.949 14.157 0.718 7.075 2.761 11.419 7.801 12.911 14.98 0.805 3.872 0.328 7.743-1.418 11.507-0.589 1.267-1.228 2.547-1.867 3.828-0.525 1.053-1.067 2.14-1.582 3.225-1.19 2.496-1.824 4.718-1.995 6.993-0.114 1.553 0.131 3.037 0.381 4.196z"/>
<path d="m41.923 17.994-0.016-0.031c-2.386-4.474-6.576-4.822-7.803-4.822-0.108 0-0.188 3e-3 -0.237 5e-3 -0.049-3e-3 -0.13-5e-3 -0.237-5e-3 -1.227 0-5.417 0.348-7.803 4.822l-0.016 0.031c-0.089 0.188-2.147 4.655 0.586 9.096l9e-3 0.015c0.065 0.1 1.602 2.474 1.785 2.748 0.196 0.294 0.304 1.043 0.341 1.583v1.89c0 0.129-2e-3 0.256-3e-3 0.38-4e-3 0.293-7e-3 0.596 0.01 0.9 0.035 0.627 0.47 1.108 1.083 1.196 0.369 0.053 0.762 0.087 1.275 0.11 0.356 0.017 0.417 0.142 0.454 0.217 0.416 0.855 1.413 1.407 2.54 1.408 0.548 0 1.056-0.13 1.48-0.364 0.424-0.235 0.763-0.573 0.971-0.992 0.046-0.091 0.131-0.261 0.541-0.268 0.395-6e-3 0.699-0.024 0.986-0.058 0.891-0.103 1.379-0.676 1.338-1.571-8e-3 -0.176-0.028-0.337-0.047-0.492-0.025-0.201-0.047-0.375-0.037-0.537 0.016-0.267 0.038-1.792 0.068-2.032 0.06-0.486 0.129-1.036 0.352-1.371 0.184-0.275 1.721-2.648 1.786-2.748l9e-3 -0.015c2.732-4.44 0.675-8.907 0.585-9.095zm-1.826 8.323c-0.096 0.148-1.596 2.464-1.771 2.724-0.078 0.117-0.145 0.24-0.202 0.365-0.309 0.675-0.987 1.104-1.729 1.104h-5.225c-0.684 0-1.291-0.421-1.548-1.054-0.064-0.158-0.136-0.297-0.215-0.416-0.173-0.259-1.675-2.575-1.77-2.723-2.239-3.646-0.618-7.445-0.511-7.687 2.856-5.325 10.656-5.27 13.482 0 0.113 0.254 1.725 4.047-0.511 7.687z"/>
<path d="m35.871 26.631c0.077-0.269 0.156-0.537 0.235-0.806l0.013-0.043c0.049-0.164 0.097-0.328 0.145-0.492 0.48-1.647 0.961-3.294 1.44-4.941 0.112-0.384-0.044-0.578-0.195-0.674-0.092-0.058-0.194-0.089-0.295-0.089-0.232 0-0.433 0.162-0.512 0.412-0.07 0.223-0.135 0.45-0.198 0.67l-0.079 0.276-0.137-0.049c-0.589-0.209-1.159-0.336-1.741-0.389l-0.062-6e-3 -0.037-0.051c-6e-3 -9e-3 -0.012-0.018-0.016-0.026l-0.014-0.026-2e-3 -0.029c-8e-3 -0.108-6e-3 -0.218-5e-3 -0.324 1e-3 -0.091 2e-3 -0.184-2e-3 -0.278-0.015-0.322-0.243-0.559-0.543-0.563-0.29 0-0.527 0.252-0.539 0.575-8e-3 0.215-7e-3 0.404 1e-3 0.578 0 9e-3 1e-3 0.016 1e-3 0.022v0.117l-0.116 0.018c-9e-3 1e-3 -0.02 3e-3 -0.034 4e-3 -0.306 0.027-0.554 0.064-0.78 0.115-0.263 0.06-0.518 0.13-0.788 0.205l-0.308 0.085-0.071-0.241c-0.062-0.211-0.124-0.421-0.185-0.631-0.083-0.284-0.286-0.467-0.519-0.467-0.041 0-0.082 6e-3 -0.123 0.016-0.162 0.043-0.283 0.129-0.35 0.248-0.073 0.13-0.083 0.299-0.027 0.49 0.586 2.02 1.186 4.075 1.833 6.283 0.081 0.276 0.278 0.447 0.516 0.447 0.054 0 0.11-9e-3 0.165-0.026 0.128-0.039 0.243-0.135 0.308-0.257 0.051-0.095 0.097-0.254 0.03-0.471-0.208-0.678-0.409-1.369-0.602-2.037l-0.193-0.665c-0.107-0.366-0.213-0.733-0.32-1.105l-0.154-0.535 0.117-0.045c0.462-0.179 0.935-0.292 1.447-0.346l0.151-0.016v0.208c0 0.089 0 0.178-1e-3 0.267v0.025c-1e-3 0.219-2e-3 0.445 2e-3 0.667 7e-3 0.342 0.222 0.573 0.537 0.574 0.31 0 0.524-0.22 0.545-0.56 4e-3 -0.072 4e-3 -0.144 3e-3 -0.214 0-0.029-1e-3 -0.058-1e-3 -0.087v-0.883l0.152 0.017c0.529 0.059 1.001 0.173 1.443 0.347l0.114 0.045-0.032 0.118c-8e-3 0.029-0.016 0.058-0.024 0.086l-0.384 1.323c-0.278 0.956-0.556 1.911-0.831 2.868-0.052 0.179-0.024 0.357 0.075 0.489 0.111 0.147 0.305 0.222 0.51 0.194 0.219-0.026 0.366-0.167 0.437-0.417z"/>
<path d="m24.444 28.468c-0.064 0.089-0.149 0.308-0.308 0.415-0.426 0.286-0.88 0.534-1.333 0.779-0.329 0.178-0.697 0.063-0.872-0.244-0.176-0.309-0.079-0.672 0.251-0.872 0.425-0.257 0.852-0.509 1.289-0.745 0.449-0.241 0.965 0.057 0.973 0.667z"/>
<path d="m23.719 16.683c-0.055-0.021-0.192-0.054-0.31-0.119-0.392-0.217-0.78-0.444-1.166-0.672-0.385-0.228-0.501-0.586-0.304-0.92 0.194-0.329 0.57-0.408 0.952-0.19 0.422 0.241 0.846 0.48 1.257 0.737 0.266 0.166 0.348 0.448 0.254 0.736-0.081 0.249-0.328 0.424-0.683 0.428z"/>
<path d="m22.395 22.81c-0.058 9e-3 -0.194 0.046-0.329 0.046-0.448 0-0.897-0.01-1.345-0.022-0.448-0.013-0.722-0.27-0.712-0.657 0.01-0.382 0.301-0.633 0.741-0.628 0.486 6e-3 0.972 9e-3 1.457 0.035 0.313 0.017 0.521 0.224 0.579 0.521 0.048 0.257-0.082 0.53-0.391 0.705z"/>
<path d="m47.315 22.81c-0.058 9e-3 -0.194 0.046-0.329 0.046-0.448 0-0.897-0.01-1.345-0.022-0.448-0.013-0.722-0.27-0.712-0.657 0.01-0.382 0.301-0.633 0.741-0.628 0.486 6e-3 0.972 9e-3 1.457 0.035 0.313 0.017 0.521 0.224 0.579 0.521 0.048 0.257-0.082 0.53-0.391 0.705z"/>
<path d="m43.279 28.468c0.064 0.089 0.149 0.308 0.308 0.415 0.426 0.286 0.88 0.534 1.333 0.779 0.329 0.178 0.697 0.063 0.872-0.244 0.176-0.309 0.079-0.672-0.251-0.872-0.425-0.257-0.852-0.509-1.289-0.745-0.449-0.241-0.964 0.057-0.973 0.667z"/>
<path d="m44.004 16.683c0.055-0.021 0.192-0.054 0.31-0.119 0.392-0.217 0.78-0.444 1.166-0.672 0.385-0.228 0.501-0.586 0.304-0.92-0.194-0.329-0.57-0.408-0.952-0.19-0.422 0.241-0.846 0.48-1.257 0.737-0.266 0.166-0.348 0.448-0.254 0.736 0.082 0.249 0.328 0.424 0.683 0.428z"/>
</g>
</g>
<g transform="matrix(.89966 0 0 .89966 112.65 31.86)" fill="#111" featurekey="nameFeature-0">
<path d="m16.055 40.371c-7.5391 0-13.438-5.2344-13.438-14.004 0-8.75 5.8984-13.984 13.438-13.984 5.1758 0 9.5703 2.5 11.758 6.875l-2.4609 1.0938c-1.8164-3.4375-5.2734-5.3125-9.2969-5.3125-5.957 0-10.742 4.0625-10.742 11.328 0 7.2852 4.7852 11.348 10.742 11.348 4.0234 0 7.4805-1.875 9.2969-5.3125l2.4609 1.0938c-2.1875 4.375-6.582 6.875-11.758 6.875zm33.295 0c-7.5391 0-13.438-5.2344-13.438-14.004 0-8.75 5.8984-13.984 13.438-13.984 7.4805 0 13.418 5.2344 13.418 13.984 0 8.7695-5.9375 14.004-13.418 14.004zm0-2.6172c5.9375 0 10.684-4.082 10.684-11.387 0-7.2656-4.7461-11.328-10.684-11.328-5.957 0-10.742 4.0625-10.742 11.328 0 7.3047 4.7852 11.387 10.742 11.387zm26.888-0.2539h9.7656v2.5h-12.48v-27.246h2.7148v24.746zm21.85 0h9.7656v2.5h-12.48v-27.246h2.7148v24.746zm36.401 2.5-2.4609-6.8359h-12.637l-2.4609 6.8359h-2.8711l10.039-27.246h3.2031l10.039 27.246h-2.8516zm-14.199-9.3164h10.84l-5.4297-15.078zm38.978-4.8436c3.2422 0.82031 5.4102 3.1641 5.4102 6.8555 0 4.2383-3.0859 7.3047-7.4414 7.3047h-10.391v-27.246h8.0664c4.5313 0 7.7539 2.9883 7.7539 7.1094 0 2.6953-1.25 4.9023-3.3984 5.9766zm0.82-5.801c0-2.7148-2.0117-4.8438-5.2148-4.8438h-5.3906v9.7852h6.1719c2.5195 0 4.4336-2.2461 4.4336-4.9414zm-3.261 17.48c3.125 0 5.2148-2.3242 5.2148-5.0781 0-2.9492-2.207-5.1172-5.5273-5.1172h-7.0313v10.195h7.3438zm29.897 2.8516c-7.5391 0-13.438-5.2344-13.438-14.004 0-8.75 5.8984-13.984 13.438-13.984 7.4805 0 13.418 5.2344 13.418 13.984 0 8.7695-5.9375 14.004-13.418 14.004zm0-2.6172c5.9375 0 10.684-4.082 10.684-11.387 0-7.2656-4.7461-11.328-10.684-11.328-5.957 0-10.742 4.0625-10.742 11.328 0 7.3047 4.7852 11.387 10.742 11.387zm39.056 2.2461-6.9727-12.402h-5.1953v12.402h-2.7148v-27.246h8.75c5.3906 0 8.0078 3.3789 8.0078 7.5391 0 3.75-2.207 6.6016-6.1523 7.1875l7.4023 12.52h-3.125zm-12.168-24.805v10.117h5.7227c3.8867 0 5.7031-2.0508 5.7031-5.0195 0-2.9297-1.8164-5.0977-5.7031-5.0977h-5.7227zm31.928 25.176c-5.0391 0-9.043-3.1836-9.043-8.1055 0-3.6328 2.1875-6.2109 5.3711-7.2852-2.3047-1.0547-3.8672-3.2031-3.8672-5.8008 0-3.9453 3.2617-6.7969 7.5391-6.7969 4.1602 0 7.4414 2.8516 7.4414 6.7969 0 2.5977-1.5234 4.7461-3.8281 5.8008 3.1641 1.0742 5.3711 3.6523 5.3711 7.2852 0 4.9414-3.9844 8.1055-8.9844 8.1055zm0-16.328c2.7734 0 4.9805-2.0703 4.9805-4.7266 0-2.6172-2.207-4.6094-4.9805-4.6094-2.8711 0-5.0195 1.9922-5.0195 4.6094 0 2.6563 2.1484 4.7266 5.0195 4.7266zm0 13.848c3.5156 0 6.3281-2.2852 6.3281-5.8789 0-3.5352-2.8125-5.7617-6.3281-5.7617-3.5742 0-6.4063 2.2266-6.4063 5.7617 0 3.5938 2.8125 5.8789 6.4063 5.8789zm37.338-25.137h2.6758v27.246h-2.6563l-15.605-22.91v22.91h-2.6367v-27.246h2.6367l15.586 22.813v-22.813z"/>
</g>
</svg>
